::Release Info::
================
Release Title: Parkway Drive - Home is for the Heartless [2012] 720p WEBRip
Encode date: UTC 2012-10-18 09:11:22

::IMDB and TMDB Info::
======================
TMDB Link: http://www.themoviedb.org/movie/125379
IMDB Link: http://www.imdb.com/title/
Storyline: Follow the band on their endless global trek, shot in 42 countries on five continents, the 75-minute "Home Is For The Heartless" DVD is both a rare travelogue and an in-depth look at PARKWAY DRIVE on stage and off. In addition to footage of some of the craziest shows the band has ever played, it also captures some of their greatest adventures and most poignant shared moments.
Genre: Music | Documentary
Release date: 06/07/2012

General
=======
Complete name : Parkway Drive - Home is for the Heartless [2012] 720p WEBRip.mp4
Format : MPEG-4
Format profile : Base Media / Version 2
Codec ID : mp42
File size : 1.40 GiB
Duration : 1h 18mn
Overall bit rate mode : Variable
Overall bit rate : 2 540 Kbps
Encoded date : UTC 2012-10-18 09:11:22
Tagged date : UTC 2012-10-18 09:11:22
gsst : 0
gstd : 4731181
gssd : B52946284HH1367705017136687
gshh :

Video
=====
ID : 1
Format : AVC
Format/Info : Advanced Video Codec
Format profile : High@L3.1
Format settings, CABAC : Yes
Format settings, ReFrames : 1 frame
Format settings, GOP : M=1, N=60
Codec ID : avc1
Codec ID/Info : Advanced Video Coding
Duration : 1h 18mn
Bit rate : 2 346 Kbps
Maximum bit rate : 9 759 Kbps
Width : 1 280 pixels
Height : 720 pixels
Display aspect ratio : 16:9
Frame rate mode : Constant
Frame rate : 23.976 fps
Color space : YUV
Chroma subsampling : 4:2:0
Bit depth : 8 bits
Scan type : Progressive
Bits/(Pixel*Frame) : 0.106
Stream size : 1.29 GiB (92%)
Tagged date : UTC 2012-10-18 09:12:48

Audio
=====
ID : 2
Format : AAC
Format/Info : Advanced Audio Codec
Format profile : LC
Codec ID : 40
Duration : 1h 18mn
Bit rate mode : Variable
Bit rate : 192 Kbps
Maximum bit rate : 202 Kbps
Channel(s) : 2 channels
Channel positions : Front: L R
Sampling rate : 44.1 KHz
Compression mode : Lossy
Stream size : 108 MiB (8%)
Title : IsoMedia File Produced by Google, 5-11-2011
Encoded date : UTC 2012-10-18 09:11:57
Tagged date : UTC 2012-10-18 09:12:48